<svg width="14" height="16" viewBox="0 0 14 16" fill="none" xmlns="http://www.w3.org/2000/svg">
<path d="M9.31648 10.2382V4.64729C10.393 5.42001 11.7143 5.87691 13.1396 5.87691V3.74087C12.3156 3.56631 11.5919 3.1205 11.0574 2.50752C10.1963 1.94661 9.57632 1.0476 9.3796 0H7.36784L7.36408 11.022C7.3196 12.2554 6.30256 13.2473 5.05915 13.2473C4.28707 13.2473 3.60782 12.8646 3.18468 12.2851C2.44975 11.895 1.94496 11.1261 1.94496 10.2382C1.94496 8.964 2.98054 7.92752 4.25366 7.92752C4.49122 7.92752 4.72135 7.9684 4.93663 8.03528V5.88063C2.20478 5.94007 0 8.18384 0 10.9366C0 12.2665 0.515936 13.4776 1.3585 14.384C2.1788 14.9598 3.18097 15.3016 4.25738 15.3016C7.04488 15.3016 9.31648 13.0281 9.31648 10.2382Z" fill="#fafafa"/>
</svg>
